<svg xmlns="http://www.w3.org/2000/svg" viewBox="0 0 64 64" width="64" height="64" role="img" aria-label="KINOOX">
  <defs>
    <linearGradient id="flux" x1="0" y1="0" x2="1" y2="1">
      <stop offset="0%" stop-color="#FF3D6E" />
      <stop offset="100%" stop-color="#FF6B3D" />
    </linearGradient>
  </defs>
  <rect width="64" height="64" rx="14" fill="#06070A" />
  <g fill="none" stroke="url(#flux)" stroke-width="3" stroke-linecap="round">
    <path d="M22 44c-7-2-12-8-12-15s6-14 14-16c9-2 20 1 26 7 4 4 5 9 2 13-3 4-9 5-15 4-4-1-7-3-11-3-10 0-16 2-18 6-1 2 0 4 2 5 3 2 7 2 12 3" />
  </g>
  <circle cx="43" cy="22" r="2.4" fill="url(#flux)" />
  <g stroke="url(#flux)" stroke-width="2" stroke-linecap="round" opacity="0.75">
    <path d="M18 15l-3-4" />
    <path d="M26 12l-1-4" />
    <path d="M34 12l2-4" />
    <path d="M14 24l-5-2" />
    <path d="M12 33h-5" />
    <path d="M34 47l2 4" />
    <path d="M26 50v4" />
    <path d="M46 45l4 3" />
  </g>
</svg>